Muli-ExtraLight.ufo
<glyph name="quotesingle" format="1">
  <advance width="544"/>
  <unicode hex="0027"/>
  <outline>
    <contour>
      <point x="237" y="929" type="line"/>
      <point x="207" y="1456" type="line"/>
      <point x="317" y="1456" type="line"/>
      <point x="301" y="929" type="line"/>
    </contour>
  </outline>
</glyph>
<glyph name="parenleft" format="1">
  <advance width="564"/>
  <unicode hex="0028"/>
  <outline>
    <contour>
      <point x="420" y="-176" type="line"/>
      <point x="270" y="56"/>
      <point x="164" y="340"/>
      <point x="164" y="660" type="curve" smooth="yes"/>
      <point x="164" y="990"/>
      <point x="254" y="1251"/>
      <point x="422" y="1516" type="curve"/>
      <point x="516" y="1516" type="line"/>
      <point x="353" y="1253"/>
      <point x="262" y="986"/>
      <point x="262" y="667" type="curve" smooth="yes"/>
      <point x="262" y="371"/>
      <point x="357" y="69"/>
      <point x="518" y="-176" type="curve"/>
    </contour>
  </outline>
</glyph>
<glyph name="parenright" format="1">
  <advance width="564"/>
  <unicode hex="0029"/>
  <outline>
    <contour>
      <point x="47" y="-196" type="line"/>
      <point x="210" y="66"/>
      <point x="301" y="334"/>
      <point x="301" y="653" type="curve" smooth="yes"/>
      <point x="301" y="949"/>
      <point x="206" y="1251"/>
      <point x="45" y="1496" type="curve"/>
      <point x="143" y="1496" type="line"/>
      <point x="294" y="1264"/>
      <point x="400" y="979"/>
      <point x="400" y="660" type="curve" smooth="yes"/>
      <point x="400" y="329"/>
      <point x="309" y="68"/>
      <point x="142" y="-196" type="curve"/>
    </contour>
  </outline>
</glyph>
<glyph name="plus" format="1">
  <advance width="1116"/>
  <unicode hex="002B"/>
  <outline>
    <contour>
      <point x="512" y="137" type="line"/>
      <point x="512" y="581" type="line"/>
      <point x="121" y="581" type="line"/>
      <point x="121" y="672" type="line"/>
      <point x="511" y="672" type="line"/>
      <point x="511" y="1081" type="line"/>
      <point x="600" y="1081" type="line"/>
      <point x="600" y="672" type="line"/>
      <point x="995" y="672" type="line"/>
      <point x="995" y="581" type="line"/>
      <point x="603" y="581" type="line"/>
      <point x="603" y="137" type="line"/>
    </contour>
  </outline>
</glyph>
<glyph name="slash" format="1">
  <advance width="732"/>
  <unicode hex="002F"/>
  <outline>
    <contour>
      <point x="143" y="0" type="line"/>
      <point x="570" y="1456" type="line"/>
      <point x="652" y="1456" type="line"/>
      <point x="223" y="0" type="line"/>
    </contour>
  </outline>
</glyph>
<glyph name="four" format="1">
  <advance width="1177"/>
  <unicode hex="0034"/>
  <outline>
    <contour>
      <point x="221" y="485" type="line"/>
      <point x="765" y="485" type="line"/>
      <point x="765" y="1387" type="line"/>
      <point x="609" y="1126" type="line"/>
    </contour>
    <contour>
      <point x="767" y="0" type="line"/>
      <point x="767" y="391" type="line"/>
      <point x="101" y="391" type="line"/>
      <point x="101" y="475" type="line"/>
      <point x="700" y="1456" type="line"/>
      <point x="881" y="1456" type="line"/>
      <point x="881" y="485" type="line"/>
      <point x="1083" y="485" type="line"/>
      <point x="1083" y="391" type="line"/>
      <point x="877" y="391" type="line"/>
      <point x="877" y="0" type="line"/>
    </contour>
  </outline>
</glyph>
<glyph name="five" format="1">
  <advance width="1177"/>
  <unicode hex="0035"/>
  <outline>
    <contour>
      <point x="557" y="-22" type="curve" smooth="yes"/>
      <point x="419" y="-22"/>
      <point x="273" y="21"/>
      <point x="152" y="109" type="curve"/>
      <point x="188" y="187" type="line"/>
      <point x="309" y="104"/>
      <point x="444" y="60"/>
      <point x="567" y="60" type="curve" smooth="yes"/>
      <point x="775" y="60"/>
      <point x="946" y="184"/>
      <point x="946" y="449" type="curve" smooth="yes"/>
      <point x="946" y="667"/>
      <point x="805" y="807"/>
      <point x="587" y="807" type="curve" smooth="yes"/>
      <point x="457" y="807"/>
      <point x="337" y="748"/>
      <point x="280" y="656" type="curve"/>
      <point x="198" y="673" type="line"/>
      <point x="218" y="1456" type="line"/>
      <point x="951" y="1456" type="line"/>
      <point x="951" y="1367" type="line"/>
      <point x="315" y="1367" type="line"/>
      <point x="287" y="771" type="line"/>
      <point x="351" y="845"/>
      <point x="469" y="893"/>
      <point x="587" y="893" type="curve" smooth="yes"/>
      <point x="872" y="893"/>
      <point x="1056" y="718"/>
      <point x="1056" y="447" type="curve" smooth="yes"/>
      <point x="1056" y="135"/>
      <point x="819" y="-22"/>
    </contour>
  </outline>
</glyph>
<glyph name="six" format="1">
  <advance width="1177"/>
  <unicode hex="0036"/>
  <outline>
    <contour>
      <point x="616" y="63" type="curve" smooth="yes"/>
      <point x="840" y="63"/>
      <point x="960" y="232"/>
      <point x="960" y="452" type="curve" smooth="yes"/>
      <point x="960" y="658"/>
      <point x="865" y="826"/>
      <point x="635" y="826" type="curve" smooth="yes"/>
      <point x="382" y="826"/>
      <point x="247" y="648"/>
      <point x="247" y="552" type="curve" smooth="yes"/>
      <point x="247" y="314"/>
      <point x="330" y="63"/>
    </contour>
    <contour>
      <point x="616" y="-23" type="curve" smooth="yes"/>
      <point x="266" y="-23"/>
      <point x="124" y="269"/>
      <point x="124" y="688" type="curve" smooth="yes"/>
      <point x="124" y="1123"/>
      <point x="286" y="1483"/>
      <point x="663" y="1483" type="curve" smooth="yes"/>
      <point x="803" y="1483"/>
      <point x="911" y="1427"/>
      <point x="970" y="1383" type="curve"/>
      <point x="927" y="1307" type="line"/>
      <point x="876" y="1349"/>
      <point x="778" y="1397"/>
      <point x="663" y="1397" type="curve" smooth="yes"/>
      <point x="295" y="1397"/>
      <point x="241" y="981"/>
      <point x="235" y="777" type="curve" smooth="yes"/>
      <point x="234" y="750"/>
      <point x="234" y="727"/>
      <point x="234" y="709" type="curve"/>
      <point x="271" y="786"/>
      <point x="417" y="912"/>
      <point x="635" y="912" type="curve" smooth="yes"/>
      <point x="878" y="912"/>
      <point x="1070" y="735"/>
      <point x="1070" y="452" type="curve" smooth="yes"/>
      <point x="1070" y="183"/>
      <point x="896" y="-23"/>
    </contour>
  </outline>
</glyph>
<glyph name="nine" format="1">
  <advance width="1182"/>
  <unicode hex="0039"/>
  <outline>
    <contour>
      <point x="559" y="634" type="curve" smooth="yes"/>
      <point x="812" y="634"/>
      <point x="947" y="812"/>
      <point x="947" y="908" type="curve" smooth="yes"/>
      <point x="947" y="1146"/>
      <point x="864" y="1397"/>
      <point x="578" y="1397" type="curve" smooth="yes"/>
      <point x="354" y="1397"/>
      <point x="234" y="1228"/>
      <point x="234" y="1008" type="curve" smooth="yes"/>
      <point x="234" y="802"/>
      <point x="329" y="634"/>
    </contour>
    <contour>
      <point x="531" y="-23" type="curve" smooth="yes"/>
      <point x="391" y="-23"/>
      <point x="283" y="33"/>
      <point x="224" y="77" type="curve"/>
      <point x="267" y="153" type="line"/>
      <point x="318" y="111"/>
      <point x="416" y="63"/>
      <point x="531" y="63" type="curve" smooth="yes"/>
      <point x="899" y="63"/>
      <point x="953" y="479"/>
      <point x="959" y="683" type="curve" smooth="yes"/>
      <point x="960" y="710"/>
      <point x="960" y="733"/>
      <point x="960" y="751" type="curve"/>
      <point x="923" y="674"/>
      <point x="777" y="548"/>
      <point x="559" y="548" type="curve" smooth="yes"/>
      <point x="316" y="548"/>
      <point x="124" y="725"/>
      <point x="124" y="1008" type="curve" smooth="yes"/>
      <point x="124" y="1277"/>
      <point x="298" y="1483"/>
      <point x="578" y="1483" type="curve" smooth="yes"/>
      <point x="928" y="1483"/>
      <point x="1070" y="1191"/>
      <point x="1070" y="772" type="curve" smooth="yes"/>
      <point x="1070" y="337"/>
      <point x="908" y="-23"/>
    </contour>
  </outline>
</glyph>
<glyph name="colon" format="1">
  <advance width="476"/>
  <unicode hex="003A"/>
  <outline>
    <contour>
      <point x="161" y="857" type="line"/>
      <point x="161" y="1024" type="line"/>
      <point x="315" y="1024" type="line"/>
      <point x="315" y="857" type="line"/>
    </contour>
    <contour>
      <point x="161" y="7" type="line"/>
      <point x="161" y="175" type="line"/>
      <point x="315" y="175" type="line"/>
      <point x="315" y="7" type="line"/>
    </contour>
  </outline>
</glyph>
<glyph name="greater" format="1">
  <advance width="1042"/>
  <unicode hex="003E"/>
  <outline>
    <contour>
      <point x="214" y="105" type="line"/>
      <point x="214" y="204" type="line"/>
      <point x="887" y="542" type="line"/>
      <point x="219" y="913" type="line"/>
      <point x="219" y="1012" type="line"/>
      <point x="996" y="573" type="line"/>
      <point x="996" y="508" type="line"/>
    </contour>
  </outline>
</glyph>
<glyph name="N" format="1">
  <advance width="1571"/>
  <unicode hex="004E"/>
  <outline>
    <contour>
      <point x="819" y="1456" type="move" name="top"/>
    </contour>
    <contour>
      <point x="224" y="0" type="line"/>
      <point x="224" y="1456" type="line"/>
      <point x="330" y="1456" type="line"/>
      <point x="1114" y="335" type="line"/>
      <point x="1241" y="142" type="line"/>
      <point x="1241" y="1456" type="line"/>
      <point x="1347" y="1456" type="line"/>
      <point x="1347" y="0" type="line"/>
      <point x="1242" y="0" type="line"/>
      <point x="439" y="1137" type="line"/>
      <point x="330" y="1303" type="line"/>
      <point x="330" y="0" type="line"/>
    </contour>
  </outline>
</glyph>
<glyph name="Q" format="1">
  <advance width="1572"/>
  <unicode hex="0051"/>
  <outline>
    <contour>
      <point x="1171" y="-405" type="curve"/>
      <point x="1233" y="-346" type="line"/>
      <point x="1233" y="-346"/>
      <point x="1066.74" y="-179.74"/>
      <point x="966.492" y="-0.71408" type="curve"/>
      <point x="1272.43" y="72.5989"/>
      <point x="1462" y="339.854"/>
      <point x="1462" y="723" type="curve" smooth="yes"/>
      <point x="1462" y="1184"/>
      <point x="1196" y="1481"/>
      <point x="788" y="1481" type="curve" smooth="yes"/>
      <point x="373" y="1481"/>
      <point x="110" y="1184"/>
      <point x="110" y="723" type="curve" smooth="yes"/>
      <point x="110" y="270"/>
      <point x="375" y="-21"/>
      <point x="788" y="-21" type="curve" smooth="yes"/>
      <point x="820.128" y="-21"/>
      <point x="851.368" y="-19.2044"/>
      <point x="881.66" y="-15.6756" type="curve"/>
      <point x="977.018" y="-206.589"/>
      <point x="1171" y="-405"/>
    </contour>
    <contour>
      <point x="788" y="65" type="curve" smooth="yes"/>
      <point x="444" y="65"/>
      <point x="220" y="323"/>
      <point x="220" y="723" type="curve" smooth="yes"/>
      <point x="220" y="1132"/>
      <point x="442" y="1395"/>
      <point x="788" y="1395" type="curve" smooth="yes"/>
      <point x="1131" y="1395"/>
      <point x="1352" y="1132"/>
      <point x="1352" y="723" type="curve" smooth="yes"/>
      <point x="1352" y="323"/>
      <point x="1132" y="65"/>
    </contour>
  </outline>
</glyph>
<glyph name="T" format="1">
  <advance width="1097"/>
  <unicode hex="0054"/>
  <outline>
    <contour>
      <point x="549" y="1456" type="move" name="top"/>
    </contour>
    <contour>
      <point x="494" y="0" type="line"/>
      <point x="494" y="1370" type="line"/>
      <point x="8" y="1370" type="line"/>
      <point x="8" y="1456" type="line"/>
      <point x="1088" y="1456" type="line"/>
      <point x="1088" y="1370" type="line"/>
      <point x="602" y="1370" type="line"/>
      <point x="602" y="0" type="line"/>
    </contour>
  </outline>
</glyph>
<glyph name="U" format="1">
  <advance width="1480"/>
  <unicode hex="0055"/>
  <outline>
    <contour>
      <point x="747" y="1456" type="move" name="top"/>
    </contour>
    <contour>
      <point x="732" y="-21" type="curve" smooth="yes"/>
      <point x="368" y="-21"/>
      <point x="176" y="164"/>
      <point x="176" y="514" type="curve" smooth="yes"/>
      <point x="176" y="1456" type="line"/>
      <point x="284" y="1456" type="line"/>
      <point x="284" y="506" type="line" smooth="yes"/>
      <point x="284" y="217"/>
      <point x="439" y="65"/>
      <point x="732" y="65" type="curve" smooth="yes"/>
      <point x="1025" y="65"/>
      <point x="1180" y="217"/>
      <point x="1180" y="506" type="curve" smooth="yes"/>
      <point x="1180" y="1456" type="line"/>
      <point x="1288" y="1456" type="line"/>
      <point x="1288" y="514" type="line" smooth="yes"/>
      <point x="1285" y="164"/>
      <point x="1093" y="-21"/>
    </contour>
  </outline>
</glyph>
<glyph name="V" format="1">
  <advance width="1381"/>
  <unicode hex="0056"/>
  <outline>
    <contour>
      <point x="628" y="0" type="line"/>
      <point x="94" y="1456" type="line"/>
      <point x="205" y="1456" type="line"/>
      <point x="571" y="435" type="line"/>
      <point x="693" y="90" type="line"/>
      <point x="809" y="433" type="line"/>
      <point x="1175" y="1456" type="line"/>
      <point x="1287" y="1456" type="line"/>
      <point x="758" y="0" type="line"/>
    </contour>
  </outline>
</glyph>
<glyph name="a" format="1">
  <advance width="1253"/>
  <unicode hex="0061"/>
  <outline>
    <contour>
      <point x="588" y="1026" type="move" name="top"/>
    </contour>
    <contour>
      <point x="581" y="61" type="curve" smooth="yes"/>
      <point x="814" y="61"/>
      <point x="947" y="242"/>
      <point x="947" y="524" type="curve" smooth="yes"/>
      <point x="947" y="795"/>
      <point x="804" y="970"/>
      <point x="581" y="970" type="curve" smooth="yes"/>
      <point x="347" y="970"/>
      <point x="196" y="795"/>
      <point x="196" y="524" type="curve" smooth="yes"/>
      <point x="196" y="242"/>
      <point x="347" y="61"/>
    </contour>
    <contour>
      <point x="577" y="-21" type="curve" smooth="yes"/>
      <point x="284" y="-21"/>
      <point x="96" y="192"/>
      <point x="96" y="524" type="curve" smooth="yes"/>
      <point x="96" y="845"/>
      <point x="286" y="1052"/>
      <point x="581" y="1052" type="curve" smooth="yes"/>
      <point x="757" y="1052"/>
      <point x="890" y="957"/>
      <point x="947" y="825" type="curve"/>
      <point x="947" y="1026" type="line"/>
      <point x="1045" y="1026" type="line"/>
      <point x="1045" y="0" type="line"/>
      <point x="947" y="0" type="line"/>
      <point x="947" y="215" type="line"/>
      <point x="886" y="77"/>
      <point x="761" y="-21"/>
    </contour>
  </outline>
</glyph>
<glyph name="b" format="1">
  <advance width="1259"/>
  <unicode hex="0062"/>
  <outline>
    <contour>
      <point x="675" y="1026" type="move" name="top"/>
    </contour>
    <contour>
      <point x="696" y="61" type="curve" smooth="yes"/>
      <point x="930" y="61"/>
      <point x="1062" y="241"/>
      <point x="1062" y="520" type="curve" smooth="yes"/>
      <point x="1062" y="794"/>
      <point x="930" y="970"/>
      <point x="696" y="970" type="curve" smooth="yes"/>
      <point x="451" y="970"/>
      <point x="294" y="794"/>
      <point x="294" y="520" type="curve" smooth="yes"/>
      <point x="294" y="241"/>
      <point x="451" y="61"/>
    </contour>
    <contour>
      <point x="696" y="-21" type="curve" smooth="yes"/>
      <point x="508" y="-21"/>
      <point x="350" y="81"/>
      <point x="293" y="239" type="curve"/>
      <point x="288" y="0" type="line"/>
      <point x="189" y="0" type="line" smooth="yes"/>
      <point x="189" y="2"/>
      <point x="196" y="162"/>
      <point x="196" y="268" type="curve" smooth="yes"/>
      <point x="196" y="1516" type="line"/>
      <point x="294" y="1516" type="line"/>
      <point x="294" y="799" type="line"/>
      <point x="357" y="953"/>
      <point x="515" y="1052"/>
      <point x="696" y="1052" type="curve" smooth="yes"/>
      <point x="978" y="1052"/>
      <point x="1160" y="844"/>
      <point x="1160" y="520" type="curve" smooth="yes"/>
      <point x="1160" y="191"/>
      <point x="978" y="-21"/>
    </contour>
  </outline>
</glyph>
<glyph name="c" format="1">
  <advance width="1022"/>
  <unicode hex="0063"/>
  <outline>
    <contour>
      <point x="580" y="1026" type="move" name="top"/>
    </contour>
    <contour>
      <point x="612" y="-21" type="curve" smooth="yes"/>
      <point x="298" y="-21"/>
      <point x="96" y="184"/>
      <point x="96" y="502" type="curve" smooth="yes"/>
      <point x="96" y="837"/>
      <point x="302" y="1052"/>
      <point x="622" y="1052" type="curve" smooth="yes"/>
      <point x="741" y="1052"/>
      <point x="863" y="1013"/>
      <point x="933" y="952" type="curve"/>
      <point x="900" y="880" type="line"/>
      <point x="835" y="937"/>
      <point x="737" y="970"/>
      <point x="622" y="970" type="curve" smooth="yes"/>
      <point x="363" y="970"/>
      <point x="196" y="787"/>
      <point x="196" y="502" type="curve" smooth="yes"/>
      <point x="196" y="234"/>
      <point x="359" y="61"/>
      <point x="612" y="61" type="curve" smooth="yes"/>
      <point x="742" y="61"/>
      <point x="847" y="102"/>
      <point x="930" y="167" type="curve"/>
      <point x="964" y="100" type="line"/>
      <point x="889" y="26"/>
      <point x="752" y="-21"/>
    </contour>
  </outline>
</glyph>
<glyph name="h" format="1">
  <advance width="1255"/>
  <unicode hex="0068"/>
  <outline>
    <contour>
      <point x="704" y="1026" type="move" name="top"/>
    </contour>
    <contour>
      <point x="196" y="0" type="line"/>
      <point x="196" y="1516" type="line"/>
      <point x="294" y="1516" type="line"/>
      <point x="294" y="827" type="line"/>
      <point x="366" y="955"/>
      <point x="502" y="1052"/>
      <point x="700" y="1052" type="curve" smooth="yes"/>
      <point x="857" y="1052"/>
      <point x="1065" y="985"/>
      <point x="1065" y="682" type="curve" smooth="yes"/>
      <point x="1065" y="0" type="line"/>
      <point x="967" y="0" type="line"/>
      <point x="967" y="659" type="line" smooth="yes"/>
      <point x="967" y="860"/>
      <point x="900" y="970"/>
      <point x="700" y="970" type="curve" smooth="yes"/>
      <point x="484" y="970"/>
      <point x="294" y="803"/>
      <point x="294" y="628" type="curve" smooth="yes"/>
      <point x="294" y="0" type="line"/>
    </contour>
  </outline>
</glyph>
<glyph name="n" format="1">
  <advance width="1257"/>
  <unicode hex="006E"/>
  <outline>
    <contour>
      <point x="664" y="1026" type="move" name="top"/>
    </contour>
    <contour>
      <point x="202" y="0" type="line"/>
      <point x="202" y="880" type="line" smooth="yes"/>
      <point x="202" y="918"/>
      <point x="196" y="1026"/>
      <point x="196" y="1026" type="curve"/>
      <point x="285" y="1026" type="line"/>
      <point x="295" y="820" type="line"/>
      <point x="365" y="972"/>
      <point x="518" y="1052"/>
      <point x="699" y="1052" type="curve" smooth="yes"/>
      <point x="947" y="1052"/>
      <point x="1067" y="903"/>
      <point x="1067" y="622" type="curve" smooth="yes"/>
      <point x="1067" y="0" type="line"/>
      <point x="969" y="0" type="line"/>
      <point x="969" y="622" type="line" smooth="yes"/>
      <point x="969" y="850"/>
      <point x="883" y="970"/>
      <point x="699" y="970" type="curve" smooth="yes"/>
      <point x="503" y="970"/>
      <point x="352" y="869"/>
      <point x="300" y="678" type="curve"/>
      <point x="300" y="0" type="line"/>
    </contour>
  </outline>
</glyph>
<glyph name="r" format="1">
  <advance width="769"/>
  <unicode hex="0072"/>
  <outline>
    <contour>
      <point x="480" y="1026" type="move" name="top"/>
    </contour>
    <contour>
      <point x="205" y="0" type="line"/>
      <point x="205" y="776" type="line" smooth="yes"/>
      <point x="205" y="904"/>
      <point x="196" y="1026"/>
      <point x="196" y="1026" type="curve"/>
      <point x="296" y="1026" type="line"/>
      <point x="306" y="835" type="line"/>
      <point x="352" y="994"/>
      <point x="475" y="1048"/>
      <point x="608" y="1048" type="curve" smooth="yes"/>
      <point x="641" y="1048"/>
      <point x="675" y="1045"/>
      <point x="709" y="1039" type="curve"/>
      <point x="704" y="949" type="line"/>
      <point x="672" y="955"/>
      <point x="640" y="958"/>
      <point x="610" y="958" type="curve" smooth="yes"/>
      <point x="434" y="958"/>
      <point x="303" y="849"/>
      <point x="303" y="559" type="curve" smooth="yes"/>
      <point x="303" y="0" type="line"/>
    </contour>
  </outline>
</glyph>
<glyph name="t" format="1">
  <advance width="687"/>
  <unicode hex="0074"/>
  <outline>
    <contour>
      <point x="299" y="1264" type="move" name="caron.alt"/>
    </contour>
    <contour>
      <point x="294" y="1311" type="move" name="top"/>
    </contour>
    <contour>
      <point x="592" y="-1" type="line"/>
      <point x="576" y="-1"/>
      <point x="560" y="0"/>
      <point x="546" y="0" type="curve" smooth="yes"/>
      <point x="239" y="15"/>
      <point x="258" y="149"/>
      <point x="258" y="326" type="curve" smooth="yes"/>
      <point x="258" y="961" type="line"/>
      <point x="56" y="961" type="line"/>
      <point x="56" y="1026" type="line"/>
      <point x="258" y="1026" type="line"/>
      <point x="258" y="1320" type="line"/>
      <point x="356" y="1349" type="line"/>
      <point x="356" y="1026" type="line"/>
      <point x="589" y="1026" type="line"/>
      <point x="589" y="961" type="line"/>
      <point x="356" y="961" type="line"/>
      <point x="356" y="323" type="line" smooth="yes"/>
      <point x="356" y="122"/>
      <point x="358" y="83"/>
      <point x="592" y="83" type="curve"/>
    </contour>
  </outline>
</glyph>
<glyph name="v" format="1">
  <advance width="949"/>
  <unicode hex="0076"/>
  <outline>
    <contour>
      <point x="424" y="0" type="line"/>
      <point x="1" y="1026" type="line"/>
      <point x="102" y="1026" type="line"/>
      <point x="431" y="210" type="line"/>
      <point x="479" y="78" type="line"/>
      <point x="527" y="210" type="line"/>
      <point x="856" y="1026" type="line"/>
      <point x="957" y="1026" type="line"/>
      <point x="534" y="0" type="line"/>
    </contour>
  </outline>
</glyph>
<glyph name="braceleft" format="1">
  <advance width="908"/>
  <unicode hex="007B"/>
  <outline>
    <contour>
      <point x="462" y="1159" type="curve" smooth="yes"/>
      <point x="462" y="870" type="line" smooth="yes"/>
      <point x="462" y="696"/>
      <point x="407" y="592"/>
      <point x="284" y="555" type="curve"/>
      <point x="407" y="519"/>
      <point x="462" y="415"/>
      <point x="462" y="241" type="curve" smooth="yes"/>
      <point x="462" y="-48" type="line" smooth="yes"/>
      <point x="462" y="-153"/>
      <point x="462" y="-217"/>
      <point x="744" y="-213" type="curve"/>
      <point x="744" y="-290" type="line"/>
      <point x="374" y="-290"/>
      <point x="366" y="-175"/>
      <point x="366" y="-48" type="curve" smooth="yes"/>
      <point x="366" y="241" type="line" smooth="yes"/>
      <point x="366" y="418"/>
      <point x="327" y="507"/>
      <point x="102" y="535" type="curve"/>
      <point x="102" y="576" type="line"/>
      <point x="327" y="604"/>
      <point x="366" y="693"/>
      <point x="366" y="870" type="curve" smooth="yes"/>
      <point x="366" y="1159" type="line" smooth="yes"/>
      <point x="366" y="1286"/>
      <point x="374" y="1401"/>
      <point x="744" y="1401" type="curve"/>
      <point x="744" y="1324" type="line"/>
      <point x="462" y="1328"/>
      <point x="462" y="1264"/>
    </contour>
  </outline>
</glyph>
<glyph name="bar" format="1">
  <advance width="1685"/>
  <unicode hex="007C"/>
  <outline>
    <contour>
      <point x="794" y="-517" type="line"/>
      <point x="794" y="1572" type="line"/>
      <point x="891" y="1572" type="line"/>
      <point x="891" y="-517" type="line"/>
    </contour>
  </outline>
</glyph>
<glyph name="braceright" format="1">
  <advance width="846"/>
  <unicode hex="007D"/>
  <outline>
    <contour>
      <point x="105" y="-290" type="curve"/>
      <point x="105" y="-213" type="line"/>
      <point x="387" y="-217"/>
      <point x="387" y="-153"/>
      <point x="387" y="-48" type="curve" smooth="yes"/>
      <point x="387" y="241" type="line" smooth="yes"/>
      <point x="387" y="415"/>
      <point x="442" y="519"/>
      <point x="565" y="555" type="curve"/>
      <point x="442" y="592"/>
      <point x="387" y="696"/>
      <point x="387" y="870" type="curve" smooth="yes"/>
      <point x="387" y="1159" type="line" smooth="yes"/>
      <point x="387" y="1264"/>
      <point x="387" y="1328"/>
      <point x="105" y="1324" type="curve"/>
      <point x="105" y="1401" type="line"/>
      <point x="475" y="1401"/>
      <point x="483" y="1286"/>
      <point x="483" y="1159" type="curve" smooth="yes"/>
      <point x="483" y="870" type="line" smooth="yes"/>
      <point x="483" y="693"/>
      <point x="522" y="604"/>
      <point x="747" y="576" type="curve"/>
      <point x="747" y="535" type="line"/>
      <point x="522" y="507"/>
      <point x="483" y="418"/>
      <point x="483" y="241" type="curve" smooth="yes"/>
      <point x="483" y="-48" type="line" smooth="yes"/>
      <point x="483" y="-175"/>
      <point x="475" y="-290"/>
    </contour>
  </outline>
</glyph>
<glyph name="asciitilde" format="1">
  <advance width="917"/>
  <unicode hex="007E"/>
  <outline>
    <contour>
      <point x="30" y="420" type="curve"/>
      <point x="-25" y="447" type="line"/>
      <point x="3" y="574"/>
      <point x="60" y="633"/>
      <point x="217" y="633" type="curve" smooth="yes"/>
      <point x="283" y="633"/>
      <point x="356" y="615"/>
      <point x="433" y="591" type="curve"/>
      <point x="590" y="533"/>
      <point x="625" y="519"/>
      <point x="690" y="519" type="curve" smooth="yes"/>
      <point x="800" y="519"/>
      <point x="860" y="606"/>
      <point x="883" y="697" type="curve"/>
      <point x="942" y="677" type="line"/>
      <point x="908" y="533"/>
      <point x="830" y="432"/>
      <point x="686" y="432" type="curve" smooth="yes"/>
      <point x="629" y="432"/>
      <point x="550" y="461"/>
      <point x="468" y="487" type="curve"/>
      <point x="314" y="547"/>
      <point x="296" y="546"/>
      <point x="217" y="546" type="curve" smooth="yes"/>
      <point x="91" y="546"/>
      <point x="50" y="513"/>
    </contour>
  </outline>
</glyph>
<glyph name="cent" format="1">
  <advance width="969"/>
  <unicode hex="00A2"/>
  <outline>
    <contour>
      <point x="561" y="-178" type="line"/>
      <point x="636" y="-178" type="line"/>
      <point x="636" y="-20.5418" type="line"/>
      <point x="767.48" y="-15.531"/>
      <point x="893.293" y="30.2357"/>
      <point x="964" y="100" type="curve"/>
      <point x="930" y="167" type="line"/>
      <point x="852.169" y="106.048"/>
      <point x="754.994" y="66.2003"/>
      <point x="636" y="61.473" type="curve"/>
      <point x="636" y="969.836" type="line"/>
      <point x="744.948" y="967.265"/>
      <point x="837.654" y="934.673"/>
      <point x="900" y="880" type="curve"/>
      <point x="933" y="952" type="line"/>
      <point x="865.743" y="1010.61"/>
      <point x="750.482" y="1048.91"/>
      <point x="636" y="1051.82" type="curve"/>
      <point x="636" y="1254" type="line"/>
      <point x="561" y="1254" type="line"/>
      <point x="561" y="1049.29" type="line"/>
      <point x="276.061" y="1023.51"/>
      <point x="96" y="815.199"/>
      <point x="96" y="502" type="curve" smooth="yes"/>
      <point x="96" y="201.568"/>
      <point x="276.298" y="1.99526"/>
      <point x="561" y="-19.1385" type="curve"/>
    </contour>
    <contour>
      <point x="561" y="966.451" type="curve"/>
      <point x="561" y="63.4393" type="line"/>
      <point x="337.308" y="85.2956"/>
      <point x="196" y="252.469"/>
      <point x="196" y="502" type="curve" smooth="yes"/>
      <point x="196" y="763.949"/>
      <point x="337.078" y="939.73"/>
    </contour>
  </outline>
</glyph>
<glyph name="brokenbar" format="1">
  <advance width="500"/>
  <unicode hex="00A6"/>
  <outline>
    <contour>
      <point x="209" y="756" type="line"/>
      <point x="209" y="1572" type="line"/>
      <point x="305" y="1572" type="line"/>
      <point x="305" y="756" type="line"/>
    </contour>
    <contour>
      <point x="208" y="-517" type="line"/>
      <point x="208" y="377" type="line"/>
      <point x="303" y="377" type="line"/>
      <point x="303" y="-517" type="line"/>
    </contour>
  </outline>
</glyph>
<glyph name="copyright" format="1">
  <advance width="1748"/>
  <unicode hex="00A9"/>
  <outline>
    <contour>
      <point x="873" y="-38" type="curve" smooth="yes"/>
      <point x="454" y="-38"/>
      <point x="110" y="304"/>
      <point x="110" y="724" type="curve" smooth="yes"/>
      <point x="110" y="1143"/>
      <point x="454" y="1487"/>
      <point x="873" y="1487" type="curve" smooth="yes"/>
      <point x="1293" y="1487"/>
      <point x="1638" y="1143"/>
      <point x="1638" y="724" type="curve" smooth="yes"/>
      <point x="1638" y="304"/>
      <point x="1293" y="-38"/>
    </contour>
    <contour>
      <point x="876" y="46" type="curve" smooth="yes"/>
      <point x="1242" y="46"/>
      <point x="1541" y="354"/>
      <point x="1541" y="719" type="curve" smooth="yes"/>
      <point x="1541" y="1086"/>
      <point x="1242" y="1393"/>
      <point x="876" y="1393" type="curve" smooth="yes"/>
      <point x="508" y="1393"/>
      <point x="209" y="1086"/>
      <point x="209" y="719" type="curve" smooth="yes"/>
      <point x="209" y="354"/>
      <point x="508" y="46"/>
    </contour>
    <contour>
      <point x="896" y="266" type="curve" smooth="yes"/>
      <point x="649" y="266"/>
      <point x="472" y="412"/>
      <point x="472" y="714" type="curve" smooth="yes"/>
      <point x="472" y="1020"/>
      <point x="671" y="1185"/>
      <point x="909" y="1185" type="curve" smooth="yes"/>
      <point x="993" y="1185"/>
      <point x="1087" y="1155"/>
      <point x="1145" y="1100" type="curve"/>
      <point x="1118" y="1038" type="line"/>
      <point x="1062" y="1084"/>
      <point x="973" y="1108"/>
      <point x="902" y="1108" type="curve" smooth="yes"/>
      <point x="767" y="1108"/>
      <point x="561" y="1031"/>
      <point x="561" y="716" type="curve" smooth="yes"/>
      <point x="561" y="486"/>
      <point x="680" y="342"/>
      <point x="881" y="342" type="curve" smooth="yes"/>
      <point x="957" y="342"/>
      <point x="1063" y="354"/>
      <point x="1142" y="414" type="curve"/>
      <point x="1172" y="351" type="line"/>
      <point x="1122" y="306"/>
      <point x="1024" y="266"/>
    </contour>
  </outline>
</glyph>
<glyph name="guillemotleft" format="1">
  <advance width="1040"/>
  <unicode hex="00AB"/>
  <outline>
    <contour>
      <point x="789" y="186" type="line"/>
      <point x="526" y="546" type="line"/>
      <point x="793" y="914" type="line"/>
      <point x="907" y="914" type="line"/>
      <point x="646" y="547" type="line"/>
      <point x="899" y="186" type="line"/>
    </contour>
    <contour>
      <point x="374" y="186" type="line"/>
      <point x="111" y="546" type="line"/>
      <point x="379" y="914" type="line"/>
      <point x="492" y="914" type="line"/>
      <point x="232" y="547" type="line"/>
      <point x="484" y="186" type="line"/>
    </contour>
  </outline>
</glyph>
<glyph name="logicalnot" format="1">
  <advance width="1473"/>
  <unicode hex="00AC"/>
  <outline>
    <contour>
      <point x="1190" y="250" type="line"/>
      <point x="1190" y="694" type="line"/>
      <point x="243" y="694" type="line"/>
      <point x="243" y="786" type="line"/>
      <point x="1277" y="786" type="line"/>
      <point x="1277" y="250" type="line"/>
    </contour>
  </outline>
</glyph>
<glyph name="registered" format="1">
  <advance width="1748"/>
  <unicode hex="00AE"/>
  <outline>
    <contour>
      <point x="873" y="-38" type="curve" smooth="yes"/>
      <point x="454" y="-38"/>
      <point x="110" y="304"/>
      <point x="110" y="724" type="curve" smooth="yes"/>
      <point x="110" y="1143"/>
      <point x="454" y="1487"/>
      <point x="873" y="1487" type="curve" smooth="yes"/>
      <point x="1293" y="1487"/>
      <point x="1638" y="1143"/>
      <point x="1638" y="724" type="curve" smooth="yes"/>
      <point x="1638" y="304"/>
      <point x="1293" y="-38"/>
    </contour>
    <contour>
      <point x="876" y="46" type="curve" smooth="yes"/>
      <point x="1242" y="46"/>
      <point x="1541" y="354"/>
      <point x="1541" y="719" type="curve" smooth="yes"/>
      <point x="1541" y="1086"/>
      <point x="1242" y="1393"/>
      <point x="876" y="1393" type="curve" smooth="yes"/>
      <point x="508" y="1393"/>
      <point x="209" y="1086"/>
      <point x="209" y="719" type="curve" smooth="yes"/>
      <point x="209" y="354"/>
      <point x="508" y="46"/>
    </contour>
    <contour>
      <point x="669" y="762" type="line"/>
      <point x="821" y="762" type="line" smooth="yes"/>
      <point x="1033" y="762"/>
      <point x="1123" y="791"/>
      <point x="1123" y="937" type="curve" smooth="yes"/>
      <point x="1123" y="1095"/>
      <point x="1051" y="1121"/>
      <point x="794" y="1121" type="curve" smooth="yes"/>
      <point x="669" y="1121" type="line"/>
    </contour>
    <contour>
      <point x="575" y="261" type="line"/>
      <point x="575" y="1207" type="line"/>
      <point x="816" y="1207" type="line" smooth="yes"/>
      <point x="1119" y="1207"/>
      <point x="1233" y="1115"/>
      <point x="1233" y="955" type="curve" smooth="yes"/>
      <point x="1233" y="815"/>
      <point x="1186" y="733"/>
      <point x="984" y="703" type="curve"/>
      <point x="1223" y="261" type="line"/>
      <point x="1105" y="261" type="line"/>
      <point x="878" y="698" type="line"/>
      <point x="672" y="698" type="line"/>
      <point x="672" y="261" type="line"/>
    </contour>
  </outline>
</glyph>
<glyph name="macron" format="1">
  <advance width="674"/>
  <unicode hex="00AF"/>
  <outline>
    <contour>
      <point x="345" y="1026" type="move" name="_top"/>
    </contour>
    <contour>
      <point x="72" y="1235" type="line"/>
      <point x="72" y="1310" type="line"/>
      <point x="602" y="1310" type="line"/>
      <point x="602" y="1235" type="line"/>
    </contour>
  </outline>
</glyph>
<glyph name="degree" format="1">
  <advance width="812"/>
  <unicode hex="00B0"/>
  <outline>
    <contour>
      <point x="406" y="859" type="curve" smooth="yes"/>
      <point x="233" y="859"/>
      <point x="115" y="991"/>
      <point x="115" y="1145" type="curve" smooth="yes"/>
      <point x="115" y="1300"/>
      <point x="231" y="1428"/>
      <point x="406" y="1428" type="curve" smooth="yes"/>
      <point x="580" y="1428"/>
      <point x="697" y="1300"/>
      <point x="697" y="1145" type="curve" smooth="yes"/>
      <point x="697" y="991"/>
      <point x="578" y="859"/>
    </contour>
    <contour>
      <point x="406" y="945" type="curve" smooth="yes"/>
      <point x="541" y="945"/>
      <point x="601" y="1044"/>
      <point x="601" y="1147" type="curve" smooth="yes"/>
      <point x="601" y="1250"/>
      <point x="536" y="1345"/>
      <point x="406" y="1345" type="curve" smooth="yes"/>
      <point x="275" y="1345"/>
      <point x="209" y="1250"/>
      <point x="209" y="1147" type="curve" smooth="yes"/>
      <point x="209" y="1044"/>
      <point x="270" y="945"/>
    </contour>
  </outline>
</glyph>
<glyph name="plusminus" format="1">
  <advance width="1180"/>
  <unicode hex="00B1"/>
  <outline>
    <contour>
      <point x="174" y="0" type="line"/>
      <point x="174" y="92" type="line"/>
      <point x="1027" y="92" type="line"/>
      <point x="1027" y="0" type="line"/>
    </contour>
    <contour>
      <point x="556" y="209" type="line"/>
      <point x="556" y="597" type="line"/>
      <point x="198" y="597" type="line"/>
      <point x="198" y="691" type="line"/>
      <point x="556" y="691" type="line"/>
      <point x="556" y="1079" type="line"/>
      <point x="639" y="1079" type="line"/>
      <point x="639" y="691" type="line"/>
      <point x="976" y="691" type="line"/>
      <point x="976" y="597" type="line"/>
      <point x="639" y="597" type="line"/>
      <point x="639" y="209" type="line"/>
    </contour>
  </outline>
</glyph>
<glyph name="mu" format="1">
  <advance width="1285"/>
  <unicode hex="00B5"/>
  <outline>
    <contour>
      <point x="652" y="1026" type="move" name="top"/>
    </contour>
    <contour>
      <point x="296" y="-332" type="line"/>
      <point x="198" y="-328" type="line"/>
      <point x="198" y="1026" type="line"/>
      <point x="296" y="1026" type="line"/>
      <point x="296" y="408" type="line" smooth="yes"/>
      <point x="296" y="178"/>
      <point x="392" y="56"/>
      <point x="584" y="56" type="curve" smooth="yes"/>
      <point x="839" y="56"/>
      <point x="972" y="260"/>
      <point x="972" y="355" type="curve" smooth="yes"/>
      <point x="972" y="1026" type="line"/>
      <point x="1070" y="1026" type="line"/>
      <point x="1070" y="225" type="line" smooth="yes"/>
      <point x="1070" y="113"/>
      <point x="1072" y="53"/>
      <point x="1075" y="0" type="curve"/>
      <point x="986" y="0" type="line"/>
      <point x="977" y="191" type="line"/>
      <point x="891" y="55"/>
      <point x="761" y="-26"/>
      <point x="584" y="-26" type="curve" smooth="yes"/>
      <point x="457" y="-26"/>
      <point x="360" y="11"/>
      <point x="296" y="84" type="curve"/>
    </contour>
  </outline>
</glyph>
<glyph name="paragraph" format="1">
  <advance width="1191"/>
  <unicode hex="00B6"/>
  <outline>
    <contour>
      <point x="525" y="-180" type="line"/>
      <point x="525" y="843" type="line"/>
      <point x="371" y="832"/>
      <point x="156" y="931"/>
      <point x="156" y="1139" type="curve" smooth="yes"/>
      <point x="156" y="1383"/>
      <point x="337" y="1457"/>
      <point x="613" y="1457" type="curve" smooth="yes"/>
      <point x="1005" y="1457" type="line"/>
      <point x="1005" y="1381" type="line"/>
      <point x="914" y="1381" type="line"/>
      <point x="914" y="-180" type="line"/>
      <point x="841" y="-180" type="line"/>
      <point x="841" y="1381" type="line"/>
      <point x="598" y="1381" type="line"/>
      <point x="598" y="-180" type="line"/>
    </contour>
  </outline>
</glyph>
<glyph name="eth" format="1">
  <advance width="1231"/>
  <unicode hex="00F0"/>
  <outline>
    <contour>
      <point x="619" y="60" type="curve" smooth="yes"/>
      <point x="862" y="60"/>
      <point x="993" y="227"/>
      <point x="993" y="485" type="curve" smooth="yes"/>
      <point x="993" y="676"/>
      <point x="832" y="809"/>
      <point x="602" y="809" type="curve" smooth="yes"/>
      <point x="362" y="809"/>
      <point x="225" y="661"/>
      <point x="225" y="431" type="curve" smooth="yes"/>
      <point x="225" y="205"/>
      <point x="372" y="60"/>
    </contour>
    <contour>
      <point x="619" y="-22" type="curve" smooth="yes"/>
      <point x="311" y="-22"/>
      <point x="125" y="155"/>
      <point x="125" y="431" type="curve" smooth="yes"/>
      <point x="125" y="711"/>
      <point x="301" y="891"/>
      <point x="602" y="891" type="curve" smooth="yes"/>
      <point x="821" y="891"/>
      <point x="955" y="778"/>
      <point x="1014" y="676" type="curve"/>
      <point x="1000" y="935"/>
      <point x="910" y="1134"/>
      <point x="688" y="1287" type="curve"/>
      <point x="527" y="1163" type="line"/>
      <point x="477" y="1230" type="line"/>
      <point x="612" y="1334" type="line"/>
      <point x="522" y="1386"/>
      <point x="414" y="1431"/>
      <point x="286" y="1472" type="curve"/>
      <point x="329" y="1549" type="line"/>
      <point x="462" y="1509"/>
      <point x="583" y="1458"/>
      <point x="689" y="1393" type="curve"/>
      <point x="854" y="1520" type="line"/>
      <point x="906" y="1455" type="line"/>
      <point x="762" y="1344" type="line"/>
      <point x="970" y="1189"/>
      <point x="1099" y="959"/>
      <point x="1099" y="603" type="curve" smooth="yes"/>
      <point x="1099" y="211"/>
      <point x="935" y="-22"/>
    </contour>
  </outline>
</glyph>
<glyph name="oslash" format="1">
  <advance width="1230"/>
  <unicode hex="00F8"/>
  <outline>
    <contour>
      <point x="615" y="-21" type="curve" smooth="yes"/>
      <point x="931" y="-21"/>
      <point x="1134" y="187"/>
      <point x="1134" y="510" type="curve" smooth="yes"/>
      <point x="1134" y="742.336"/>
      <point x="1033.38" y="916.181"/>
      <point x="863.537" y="998.731" type="curve"/>
      <point x="964" y="1228" type="line"/>
      <point x="916" y="1249" type="line"/>
      <point x="816.103" y="1018.75" type="line"/>
      <point x="755.943" y="1040.52"/>
      <point x="688.531" y="1052"/>
      <point x="615" y="1052" type="curve" smooth="yes"/>
      <point x="299" y="1052"/>
      <point x="96" y="840"/>
      <point x="96" y="510" type="curve" smooth="yes"/>
      <point x="96" y="274.79"/>
      <point x="203.647" y="100.562"/>
      <point x="384.188" y="23.229" type="curve"/>
      <point x="283" y="-210" type="line"/>
      <point x="326" y="-228" type="line"/>
      <point x="428.791" y="6.58291" type="line"/>
      <point x="485.116" y="-11.5033"/>
      <point x="547.478" y="-21"/>
    </contour>
    <contour>
      <point x="829.044" y="920.013" type="line"/>
      <point x="961.004" y="848.147"/>
      <point x="1034" y="702.774"/>
      <point x="1034" y="510" type="curve" smooth="yes"/>
      <point x="1034" y="237"/>
      <point x="880" y="61"/>
      <point x="615" y="61" type="curve" smooth="yes"/>
      <point x="559.13" y="61"/>
      <point x="508.194" y="68.823"/>
      <point x="462.595" y="83.7287" type="curve"/>
    </contour>
    <contour>
      <point x="782.524" y="941.351" type="curve"/>
      <point x="418.063" y="101.307" type="line"/>
      <point x="275.319" y="168.109"/>
      <point x="196" y="314.074"/>
      <point x="196" y="510" type="curve" smooth="yes"/>
      <point x="196" y="790"/>
      <point x="350" y="970"/>
      <point x="615" y="970" type="curve" smooth="yes"/>
      <point x="677.127" y="970"/>
      <point x="733.153" y="960.107"/>
    </contour>
  </outline>
</glyph>
<glyph name="dotlessi" format="1">
  <advance width="473"/>
  <unicode hex="0131"/>
  <outline>
    <contour>
      <point x="238" y="1026" type="move" name="top"/>
    </contour>
    <contour>
      <point x="187" y="0" type="line"/>
      <point x="185" y="1026" type="line"/>
      <point x="286" y="1026" type="line"/>
      <point x="288" y="0" type="line"/>
    </contour>
  </outline>
</glyph>
<glyph name="Eng" format="1">
  <advance width="1503"/>
  <unicode hex="014A"/>
  <outline>
    <contour>
      <point x="1365" y="1456" type="line"/>
      <point x="1365" y="0" type="line" smooth="yes"/>
      <point x="1363" y="-231"/>
      <point x="1339" y="-428"/>
      <point x="971" y="-428" type="curve"/>
      <point x="971" y="-346" type="line"/>
      <point x="1170" y="-346"/>
      <point x="1259" y="-260"/>
      <point x="1259" y="-84" type="curve" smooth="yes"/>
      <point x="1259" y="1" type="line"/>
      <point x="457" y="1137" type="line"/>
      <point x="348" y="1303" type="line"/>
      <point x="348" y="0" type="line"/>
      <point x="242" y="0" type="line"/>
      <point x="242" y="1456" type="line"/>
      <point x="348" y="1456" type="line"/>
      <point x="1132" y="335" type="line"/>
      <point x="1259" y="142" type="line"/>
      <point x="1259" y="1456" type="line"/>
    </contour>
  </outline>
</glyph>
<glyph name="OE" format="1">
  <advance width="2038"/>
  <unicode hex="0152"/>
  <outline>
    <contour>
      <point x="826" y="66" type="curve" smooth="yes"/>
      <point x="981" y="66"/>
      <point x="1112" y="129"/>
      <point x="1193" y="238" type="curve"/>
      <point x="1193" y="1239" type="line"/>
      <point x="1122" y="1320"/>
      <point x="995" y="1395"/>
      <point x="826" y="1395" type="curve" smooth="yes"/>
      <point x="377" y="1395"/>
      <point x="220" y="1006"/>
      <point x="220" y="726" type="curve" smooth="yes"/>
      <point x="220" y="410"/>
      <point x="360" y="66"/>
    </contour>
    <contour>
      <point x="826" y="-20" type="curve" smooth="yes"/>
      <point x="324" y="-26"/>
      <point x="110" y="321"/>
      <point x="110" y="726" type="curve" smooth="yes"/>
      <point x="110" y="1143"/>
      <point x="360" y="1481"/>
      <point x="826" y="1481" type="curve" smooth="yes"/>
      <point x="920" y="1481"/>
      <point x="1078" y="1454"/>
      <point x="1193" y="1344" type="curve"/>
      <point x="1193" y="1456" type="line"/>
      <point x="1971" y="1456" type="line"/>
      <point x="1971" y="1357" type="line"/>
      <point x="1303" y="1357" type="line"/>
      <point x="1303" y="796" type="line"/>
      <point x="1932" y="796" type="line"/>
      <point x="1932" y="698" type="line"/>
      <point x="1301" y="698" type="line"/>
      <point x="1301" y="99" type="line"/>
      <point x="2002" y="99" type="line"/>
      <point x="2002" y="0" type="line"/>
      <point x="1193" y="0" type="line"/>
      <point x="1193" y="135" type="line"/>
      <point x="1120" y="47"/>
      <point x="984" y="-18"/>
    </contour>
  </outline>
</glyph>
<glyph name="circumflex" format="1">
  <advance width="699"/>
  <unicode hex="02C6"/>
  <outline>
    <contour>
      <point x="345" y="1026" type="move" name="_top"/>
    </contour>
    <contour>
      <point x="116" y="1215" type="line"/>
      <point x="322" y="1487" type="line"/>
      <point x="379" y="1487" type="line"/>
      <point x="580" y="1215" type="line"/>
      <point x="524" y="1215" type="line"/>
      <point x="344" y="1400" type="line"/>
      <point x="166" y="1215" type="line"/>
    </contour>
  </outline>
</glyph>
<glyph name="uni02C9" format="1">
  <advance width="600"/>
  <unicode hex="02C9"/>
  <outline>
    <contour>
      <point x="316" y="1057" type="move" name="_top"/>
    </contour>
    <contour>
      <point x="24" y="1296" type="line"/>
      <point x="574" y="1296" type="line"/>
      <point x="574" y="1398" type="line"/>
      <point x="24" y="1398" type="line"/>
    </contour>
  </outline>
</glyph>
<glyph name="ogonek" format="1">
  <advance width="508"/>
  <unicode hex="02DB"/>
  <outline>
    <contour>
      <point x="330" y="-448" type="curve" smooth="yes"/>
      <point x="201" y="-448"/>
      <point x="97" y="-352"/>
      <point x="97" y="-235" type="curve" smooth="yes"/>
      <point x="97" y="-157"/>
      <point x="144" y="-69"/>
      <point x="260" y="5" type="curve"/>
      <point x="342" y="4" type="line"/>
      <point x="232" y="-77"/>
      <point x="198" y="-170"/>
      <point x="198" y="-227" type="curve" smooth="yes"/>
      <point x="198" y="-301"/>
      <point x="247" y="-355"/>
      <point x="331" y="-355" type="curve" smooth="yes"/>
      <point x="354" y="-355"/>
      <point x="380" y="-351"/>
      <point x="408" y="-342" type="curve"/>
      <point x="408" y="-437" type="line"/>
      <point x="379" y="-446"/>
      <point x="355" y="-448"/>
    </contour>
  </outline>
</glyph>
<glyph name="tilde" format="1">
  <advance width="573"/>
  <unicode hex="02DC"/>
  <outline>
    <contour>
      <point x="297" y="1026" type="move" name="_top"/>
    </contour>
    <contour>
      <point x="452" y="1233" type="curve" smooth="yes"/>
      <point x="360" y="1233"/>
      <point x="216" y="1330"/>
      <point x="143" y="1330" type="curve" smooth="yes"/>
      <point x="98" y="1330"/>
      <point x="81" y="1300"/>
      <point x="81" y="1250" type="curve"/>
      <point x="19" y="1250" type="line"/>
      <point x="19" y="1345"/>
      <point x="62" y="1394"/>
      <point x="138" y="1394" type="curve" smooth="yes"/>
      <point x="232" y="1394"/>
      <point x="372" y="1297"/>
      <point x="445" y="1297" type="curve" smooth="yes"/>
      <point x="485" y="1297"/>
      <point x="487" y="1330"/>
      <point x="487" y="1383" type="curve"/>
      <point x="553" y="1383" type="line"/>
      <point x="553" y="1307"/>
      <point x="535" y="1233"/>
    </contour>
  </outline>
</glyph>
<glyph name="hungarumlaut" format="1">
  <advance width="969"/>
  <unicode hex="02DD"/>
  <outline>
    <contour>
      <point x="365" y="1026" type="move" name="_top"/>
    </contour>
    <contour>
      <point x="417" y="1174" type="line"/>
      <point x="607" y="1456" type="line"/>
      <point x="721" y="1456" type="line"/>
      <point x="487" y="1174" type="line"/>
    </contour>
    <contour>
      <point x="154" y="1174" type="line"/>
      <point x="349" y="1456" type="line"/>
      <point x="448" y="1456" type="line"/>
      <point x="226" y="1174" type="line"/>
    </contour>
  </outline>
</glyph>
<glyph name="uni0307" format="1">
  <advance width="524"/>
  <unicode hex="0307"/>
  <outline>
    <contour>
      <point x="264" y="1026" type="move" name="_top"/>
    </contour>
    <contour>
      <point x="184" y="1246" type="line"/>
      <point x="182" y="1409" type="line"/>
      <point x="339" y="1409" type="line"/>
      <point x="342" y="1246" type="line"/>
    </contour>
  </outline>
</glyph>
<glyph name="uni030F" format="1">
  <advance width="969"/>
  <unicode hex="030F"/>
  <outline>
    <contour>
      <point x="635" y="1026" type="move" name="_top"/>
    </contour>
    <contour>
      <point x="758" y="1174" type="line"/>
      <point x="483" y="1487" type="line"/>
      <point x="599" y="1487" type="line"/>
      <point x="816" y="1174" type="line"/>
    </contour>
    <contour>
      <point x="489" y="1174" type="line"/>
      <point x="213" y="1487" type="line"/>
      <point x="329" y="1487" type="line"/>
      <point x="549" y="1174" type="line"/>
    </contour>
  </outline>
</glyph>
<glyph name="uni0326" format="1">
  <advance width="540"/>
  <unicode hex="0326"/>
  <outline>
    <contour>
      <point x="160" y="-557" type="line"/>
      <point x="263" y="-124" type="line"/>
      <point x="380" y="-124" type="line"/>
      <point x="230" y="-557" type="line"/>
    </contour>
  </outline>
</glyph>
<glyph name="uni0358" format="1">
  <advance width="524"/>
  <unicode hex="0358"/>
  <outline>
    <contour>
      <point x="264" y="1026" type="move" name="_top"/>
    </contour>
    <contour>
      <point x="184" y="1246" type="line"/>
      <point x="182" y="1409" type="line"/>
      <point x="339" y="1409" type="line"/>
      <point x="342" y="1246" type="line"/>
    </contour>
  </outline>
</glyph>
<glyph name="Sigma" format="1">
  <advance width="1102"/>
  <unicode hex="03A3"/>
  <outline>
    <contour>
      <point x="102" y="-99" type="line"/>
      <point x="102" y="-50" type="line"/>
      <point x="614" y="694" type="line"/>
      <point x="120" y="1392" type="line"/>
      <point x="120" y="1452" type="line"/>
      <point x="1019" y="1452" type="line"/>
      <point x="1019" y="1378" type="line"/>
      <point x="251" y="1378" type="line"/>
      <point x="716" y="706" type="line"/>
      <point x="211" y="-27" type="line"/>
      <point x="1061" y="-27" type="line"/>
      <point x="1061" y="-99" type="line"/>
    </contour>
  </outline>
</glyph>
<glyph name="endash" format="1">
  <advance width="1067"/>
  <unicode hex="2013"/>
  <outline>
    <contour>
      <point x="-13" y="515" type="line"/>
      <point x="-13" y="604" type="line"/>
      <point x="1065" y="604" type="line"/>
      <point x="1065" y="515" type="line"/>
    </contour>
  </outline>
</glyph>
<glyph name="emdash" format="1">
  <advance width="2171"/>
  <unicode hex="2014"/>
  <outline>
    <contour>
      <point x="-42" y="515" type="line"/>
      <point x="-42" y="604" type="line"/>
      <point x="2183" y="604" type="line"/>
      <point x="2183" y="515" type="line"/>
    </contour>
  </outline>
</glyph>
<glyph name="uni2015" format="1">
  <advance width="4095"/>
  <unicode hex="2015"/>
  <outline>
    <contour>
      <point x="71" y="515" type="line"/>
      <point x="71" y="615" type="line"/>
      <point x="4024" y="615" type="line"/>
      <point x="4024" y="515" type="line"/>
    </contour>
  </outline>
</glyph>
<glyph name="infinity" format="1">
  <advance width="1711"/>
  <unicode hex="221E"/>
  <outline>
    <contour>
      <point x="1250" y="334" type="curve" smooth="yes"/>
      <point x="1403" y="334"/>
      <point x="1484" y="454"/>
      <point x="1484" y="611" type="curve" smooth="yes"/>
      <point x="1484" y="733"/>
      <point x="1380" y="836"/>
      <point x="1245" y="836" type="curve" smooth="yes"/>
      <point x="1108" y="836"/>
      <point x="993" y="713"/>
      <point x="908" y="585" type="curve"/>
      <point x="1030" y="420"/>
      <point x="1123" y="334"/>
    </contour>
    <contour>
      <point x="447" y="334" type="curve" smooth="yes"/>
      <point x="580" y="334"/>
      <point x="688" y="444"/>
      <point x="784" y="581" type="curve"/>
      <point x="688" y="724"/>
      <point x="580" y="836"/>
      <point x="437" y="836" type="curve" smooth="yes"/>
      <point x="291" y="836"/>
      <point x="196" y="719"/>
      <point x="196" y="585" type="curve" smooth="yes"/>
      <point x="196" y="456"/>
      <point x="301" y="334"/>
    </contour>
    <contour>
      <point x="455" y="239" type="curve" smooth="yes"/>
      <point x="242" y="239"/>
      <point x="96" y="407"/>
      <point x="96" y="602" type="curve" smooth="yes"/>
      <point x="96" y="782"/>
      <point x="264" y="923"/>
      <point x="450" y="923" type="curve" smooth="yes"/>
      <point x="611" y="923"/>
      <point x="737" y="819"/>
      <point x="851" y="673" type="curve"/>
      <point x="962" y="815"/>
      <point x="1082" y="923"/>
      <point x="1247" y="923" type="curve" smooth="yes"/>
      <point x="1463" y="923"/>
      <point x="1601" y="783"/>
      <point x="1601" y="587" type="curve" smooth="yes"/>
      <point x="1601" y="381"/>
      <point x="1435" y="239"/>
      <point x="1245" y="239" type="curve" smooth="yes"/>
      <point x="1099" y="239"/>
      <point x="980" y="327"/>
      <point x="849" y="490" type="curve"/>
      <point x="737" y="348"/>
      <point x="613" y="239"/>
    </contour>
  </outline>
</glyph>
<glyph name="integral" format="1">
  <advance width="655"/>
  <unicode hex="222B"/>
  <outline>
    <contour>
      <point x="107" y="-282" type="curve" smooth="yes"/>
      <point x="39" y="-282"/>
      <point x="-2" y="-265"/>
      <point x="-2" y="-265" type="curve"/>
      <point x="-2" y="-177" type="line"/>
      <point x="-2" y="-177"/>
      <point x="34" y="-191"/>
      <point x="79" y="-191" type="curve" smooth="yes"/>
      <point x="253" y="-191"/>
      <point x="286" y="-103"/>
      <point x="286" y="62" type="curve" smooth="yes"/>
      <point x="286" y="1230" type="line" smooth="yes"/>
      <point x="286" y="1443"/>
      <point x="331" y="1600"/>
      <point x="556" y="1600" type="curve" smooth="yes"/>
      <point x="636" y="1600"/>
      <point x="648" y="1582"/>
      <point x="648" y="1582" type="curve"/>
      <point x="648" y="1500" type="line"/>
      <point x="648" y="1500"/>
      <point x="631" y="1510"/>
      <point x="576" y="1510" type="curve" smooth="yes"/>
      <point x="404" y="1510"/>
      <point x="385" y="1421"/>
      <point x="385" y="1256" type="curve" smooth="yes"/>
      <point x="385" y="89" type="line" smooth="yes"/>
      <point x="385" y="-124"/>
      <point x="330" y="-282"/>
    </contour>
  </outline>
</glyph>
<glyph name="notequal" format="1">
  <advance width="1326"/>
  <unicode hex="2260"/>
  <outline>
    <contour>
      <point x="427" y="53" type="line"/>
      <point x="360" y="62" type="line"/>
      <point x="501" y="342" type="line"/>
      <point x="170" y="342" type="line"/>
      <point x="170" y="415" type="line"/>
      <point x="535" y="415" type="line"/>
      <point x="720" y="767" type="line"/>
      <point x="170" y="767" type="line"/>
      <point x="170" y="840" type="line"/>
      <point x="751" y="840" type="line"/>
      <point x="895" y="1124" type="line"/>
      <point x="962" y="1114" type="line"/>
      <point x="826" y="840" type="line"/>
      <point x="1156" y="840" type="line"/>
      <point x="1156" y="767" type="line"/>
      <point x="791" y="767" type="line"/>
      <point x="607" y="415" type="line"/>
      <point x="1156" y="415" type="line"/>
      <point x="1156" y="342" type="line"/>
      <point x="574" y="342" type="line"/>
    </contour>
  </outline>
</glyph>
<glyph name="greaterequal" format="1">
  <advance width="1349"/>
  <unicode hex="2265"/>
  <outline>
    <contour>
      <point x="310" y="0" type="line"/>
      <point x="310" y="77" type="line"/>
      <point x="1159" y="77" type="line"/>
      <point x="1159" y="0" type="line"/>
    </contour>
    <contour>
      <point x="325" y="153" type="line"/>
      <point x="325" y="256" type="line"/>
      <point x="1004" y="580" type="line"/>
      <point x="330" y="962" type="line"/>
      <point x="330" y="1063" type="line"/>
      <point x="1109" y="606" type="line"/>
      <point x="1109" y="535" type="line"/>
    </contour>
  </outline>
</glyph>
<glyph name="caron.alt" format="1">
  <advance width="600"/>
  <outline>
    <contour>
      <point x="79" y="1026" type="move" name="_caron.alt"/>
    </contour>
    <contour>
      <point x="327" y="1082" type="line"/>
      <point x="430" y="1515" type="line"/>
      <point x="547" y="1515" type="line"/>
      <point x="397" y="1082" type="line"/>
    </contour>
  </outline>
</glyph>
